<svg xmlns="http://www.w3.org/2000/svg" width="59.875" height="87.281" viewBox="0 0 59.875 87.281">
  <defs>
    <style>
      .cls-1 {
        fill: #f8ff13;
        fill-opacity: 0;
        stroke: #fff;
        stroke-linejoin: round;
        stroke-width: 1px;
        fill-rule: evenodd;
        mix-blend-mode: overlay;
      }
    </style>
  </defs>
  <path id="ЛАЙКИ_copy" data-name="ЛАЙКИ copy" class="cls-1" d="M140.227,334.273h25.557l13.993-72.26H104.759c-7,37.975-8.26,42.152-11.078,46.134-2.235,3.4-5.15,5.827-10.981,5.827H82.02l-3.887,20.3h6.7c19.727,0,25.848-9.032,28.666-13.694,4.665-8.062,7.871-18.745,12.05-40.5h25.168Zm98.19-28.554H216.65L232.1,280.952Zm7.288,28.554H271.65l-20.018-72.26H218.205l-46.255,72.26h26.82l7.482-11.849h36.44Zm92.553,0h25.556l14.09-72.26H352.348l-44.5,43.609,8.454-43.609H290.74l-14.09,72.26h25.556l44.6-43.609Zm-0.486-77.019c16.131,0,21.086-11.461,21.572-17.677h-16.13a6.522,6.522,0,0,1-6.414,5.439h-0.1c-5.15,0-5.15-3.885-5.15-5.439H315.325c-0.486,6.216,1.749,17.677,20.5,17.677h1.944ZM434.6,334.273h30.415L435.085,296.2l41.59-34.188H445.288l-33.233,27.874,5.441-27.874H391.94l-14.09,72.26h25.556l6.316-32.439Zm96.637,0h25.557l14.09-72.26H545.327l-44.506,43.609,8.454-43.609H483.719l-14.09,72.26h25.556l44.6-43.609Z" transform="translate(-77.625 -247.5)"/>
</svg>
